<svg width="1869" height="448" viewBox="0 0 1869 448" fill="none" xmlns="http://www.w3.org/2000/svg">
<circle cx="224" cy="224" r="224" fill="black"/>
<path d="M118.335 158.29C103.986 150.005 103.986 136.574 118.335 128.29L195.046 84C209.395 75.7158 232.659 75.7158 247.008 84.0001L323.72 128.29C338.068 136.574 338.068 150.005 323.72 158.29L247.008 202.579C232.659 210.863 209.395 210.863 195.046 202.579L118.335 158.29Z" fill="#D9D9D9"/>
<path d="M232.465 258.263C232.465 241.695 244.097 221.548 258.446 213.263L335.158 168.974C349.507 160.69 361.139 167.405 361.139 183.974L361.139 272.553C361.139 289.121 349.507 309.269 335.158 317.553L258.446 361.842C244.097 370.127 232.465 363.411 232.465 346.842L232.465 258.263Z" fill="#D9D9D9"/>
<rect width="148.579" height="148.579" rx="30" transform="matrix(0.866025 0.5 -2.20305e-08 1 87 155.324)" fill="#D9D9D9"/>
<path d="M549.54 313V134.15H595.845C607.442 134.15 617.405 136.355 625.735 140.765C634.228 145.175 640.762 151.382 645.335 159.385C650.072 167.388 652.44 176.862 652.44 187.805V259.1C652.44 270.043 650.072 279.598 645.335 287.765C640.762 295.768 634.228 301.975 625.735 306.385C617.405 310.795 607.442 313 595.845 313H549.54ZM571.59 293.4H595.845C606.625 293.4 615.037 290.378 621.08 284.335C627.287 278.292 630.39 269.88 630.39 259.1V187.805C630.39 177.188 627.287 168.858 621.08 162.815C615.037 156.772 606.625 153.75 595.845 153.75H571.59V293.4ZM747.404 315.45C736.788 315.45 727.478 313.327 719.474 309.08C711.634 304.833 705.509 298.872 701.099 291.195C696.853 283.355 694.729 274.29 694.729 264V227.25C694.729 216.797 696.853 207.732 701.099 200.055C705.509 192.378 711.634 186.417 719.474 182.17C727.478 177.923 736.788 175.8 747.404 175.8C758.021 175.8 767.249 177.923 775.089 182.17C783.093 186.417 789.218 192.378 793.464 200.055C797.874 207.732 800.079 216.797 800.079 227.25V251.015H716.289V264C716.289 274.617 718.984 282.783 724.374 288.5C729.764 294.053 737.441 296.83 747.404 296.83C755.898 296.83 762.758 295.36 767.984 292.42C773.211 289.317 776.396 284.743 777.539 278.7H799.589C798.119 289.97 792.566 298.953 782.929 305.65C773.456 312.183 761.614 315.45 747.404 315.45ZM778.519 236.315V227.25C778.519 216.633 775.824 208.467 770.434 202.75C765.208 197.033 757.531 194.175 747.404 194.175C737.441 194.175 729.764 197.033 724.374 202.75C718.984 208.467 716.289 216.633 716.289 227.25V234.355H780.234L778.519 236.315ZM879.364 313L834.284 178.25H856.824L886.714 268.9C888.51 274.29 890.144 279.517 891.614 284.58C893.084 289.48 894.145 293.318 894.799 296.095C895.615 293.318 896.759 289.48 898.229 284.58C899.699 279.517 901.25 274.29 902.884 268.9L932.039 178.25H954.334L909.254 313H879.364ZM1037.05 314.96C1027.9 314.96 1019.9 313.572 1013.04 310.795C1006.34 307.855 1000.95 303.772 996.868 298.545C992.948 293.318 990.58 287.112 989.763 279.925H1011.81C1012.79 284.662 1015.41 288.418 1019.65 291.195C1024.06 293.972 1029.86 295.36 1037.05 295.36H1047.34C1055.99 295.36 1062.45 293.645 1066.69 290.215C1070.94 286.622 1073.06 281.885 1073.06 276.005C1073.06 270.288 1071.1 265.797 1067.18 262.53C1063.43 259.1 1057.79 256.813 1050.28 255.67L1032.15 252.73C1018.92 250.443 1009.04 246.36 1002.5 240.48C996.133 234.437 992.948 225.698 992.948 214.265C992.948 202.178 996.786 192.868 1004.46 186.335C1012.14 179.638 1023.65 176.29 1039.01 176.29H1048.32C1061.22 176.29 1071.59 179.312 1079.43 185.355C1087.27 191.398 1092.01 199.565 1093.64 209.855H1071.59C1070.61 205.608 1068.16 202.26 1064.24 199.81C1060.32 197.197 1055.01 195.89 1048.32 195.89H1039.01C1030.68 195.89 1024.55 197.442 1020.63 200.545C1016.88 203.648 1015 208.303 1015 214.51C1015 220.063 1016.63 224.147 1019.9 226.76C1023.16 229.373 1028.31 231.252 1035.33 232.395L1053.46 235.335C1068 237.622 1078.53 241.868 1085.07 248.075C1091.76 254.282 1095.11 263.265 1095.11 275.025C1095.11 287.438 1091.11 297.238 1083.11 304.425C1075.27 311.448 1063.34 314.96 1047.34 314.96H1037.05ZM1137.16 357.1V178.25H1159.21V203.975H1163.62L1159.21 209.12C1159.21 198.83 1162.56 190.745 1169.25 184.865C1176.11 178.822 1185.1 175.8 1196.2 175.8C1209.76 175.8 1220.54 180.292 1228.54 189.275C1236.71 198.095 1240.79 210.263 1240.79 225.78V265.225C1240.79 275.515 1238.91 284.417 1235.16 291.93C1231.56 299.443 1226.42 305.242 1219.72 309.325C1213.19 313.408 1205.35 315.45 1196.2 315.45C1185.26 315.45 1176.36 312.428 1169.5 306.385C1162.64 300.342 1159.21 292.257 1159.21 282.13L1163.62 287.275H1158.72L1159.21 317.9V357.1H1137.16ZM1188.85 296.34C1198.16 296.34 1205.43 293.563 1210.66 288.01C1216.05 282.457 1218.74 274.453 1218.74 264V227.25C1218.74 216.797 1216.05 208.793 1210.66 203.24C1205.43 197.687 1198.16 194.91 1188.85 194.91C1179.87 194.91 1172.68 197.768 1167.29 203.485C1161.9 209.202 1159.21 217.123 1159.21 227.25V264C1159.21 274.127 1161.9 282.048 1167.29 287.765C1172.68 293.482 1179.87 296.34 1188.85 296.34ZM1284.06 313V134.15H1306.11V178.25V203.975H1310.77L1306.11 209.12C1306.11 198.503 1309.3 190.337 1315.67 184.62C1322.04 178.74 1330.86 175.8 1342.13 175.8C1355.68 175.8 1366.46 179.965 1374.47 188.295C1382.47 196.625 1386.47 207.977 1386.47 222.35V313H1364.42V224.8C1364.42 215.163 1361.81 207.732 1356.58 202.505C1351.52 197.115 1344.58 194.42 1335.76 194.42C1326.61 194.42 1319.34 197.278 1313.95 202.995C1308.72 208.712 1306.11 216.797 1306.11 227.25V313H1284.06ZM1481.93 315.45C1471.31 315.45 1462 313.327 1454 309.08C1446.16 304.833 1440.03 298.872 1435.62 291.195C1431.37 283.355 1429.25 274.29 1429.25 264V227.25C1429.25 216.797 1431.37 207.732 1435.62 200.055C1440.03 192.378 1446.16 186.417 1454 182.17C1462 177.923 1471.31 175.8 1481.93 175.8C1492.54 175.8 1501.77 177.923 1509.61 182.17C1517.61 186.417 1523.74 192.378 1527.99 200.055C1532.4 207.732 1534.6 216.797 1534.6 227.25V251.015H1450.81V264C1450.81 274.617 1453.51 282.783 1458.9 288.5C1464.29 294.053 1471.96 296.83 1481.93 296.83C1490.42 296.83 1497.28 295.36 1502.51 292.42C1507.73 289.317 1510.92 284.743 1512.06 278.7H1534.11C1532.64 289.97 1527.09 298.953 1517.45 305.65C1507.98 312.183 1496.14 315.45 1481.93 315.45ZM1513.04 236.315V227.25C1513.04 216.633 1510.35 208.467 1504.96 202.75C1499.73 197.033 1492.05 194.175 1481.93 194.175C1471.96 194.175 1464.29 197.033 1458.9 202.75C1453.51 208.467 1450.81 216.633 1450.81 227.25V234.355H1514.76L1513.04 236.315ZM1582.53 313V178.25H1604.09V203.975H1609.23L1602.13 219.9C1602.13 205.363 1605.23 194.42 1611.44 187.07C1617.81 179.557 1627.2 175.8 1639.61 175.8C1653.82 175.8 1665.09 180.292 1673.42 189.275C1681.91 198.095 1686.16 210.1 1686.16 225.29V233.375H1664.11V227.25C1664.11 216.633 1661.5 208.548 1656.27 202.995C1651.21 197.278 1643.94 194.42 1634.47 194.42C1625.16 194.42 1617.81 197.278 1612.42 202.995C1607.19 208.712 1604.58 216.797 1604.58 227.25V313H1582.53ZM1775.73 315.45C1765.12 315.45 1755.81 313.327 1747.8 309.08C1739.96 304.833 1733.84 298.872 1729.43 291.195C1725.18 283.355 1723.06 274.29 1723.06 264V227.25C1723.06 216.797 1725.18 207.732 1729.43 200.055C1733.84 192.378 1739.96 186.417 1747.8 182.17C1755.81 177.923 1765.12 175.8 1775.73 175.8C1786.35 175.8 1795.58 177.923 1803.42 182.17C1811.42 186.417 1817.55 192.378 1821.79 200.055C1826.2 207.732 1828.41 216.797 1828.41 227.25V251.015H1744.62V264C1744.62 274.617 1747.31 282.783 1752.7 288.5C1758.09 294.053 1765.77 296.83 1775.73 296.83C1784.23 296.83 1791.09 295.36 1796.31 292.42C1801.54 289.317 1804.73 284.743 1805.87 278.7H1827.92C1826.45 289.97 1820.9 298.953 1811.26 305.65C1801.79 312.183 1789.94 315.45 1775.73 315.45ZM1806.85 236.315V227.25C1806.85 216.633 1804.15 208.467 1798.76 202.75C1793.54 197.033 1785.86 194.175 1775.73 194.175C1765.77 194.175 1758.09 197.033 1752.7 202.75C1747.31 208.467 1744.62 216.633 1744.62 227.25V234.355H1808.56L1806.85 236.315Z" fill="black"/>
</svg>
